HIERARCHY
ROOT Hips
{
	OFFSET 0.00000 0.00000 0.00000
	CHANNELS 6 Xposition Yposition Zposition Zrotation Yrotation Xrotation 
	JOINT LHipJoint
	{
		OFFSET 0 0 0
		CHANNELS 3 Zrotation Yrotation Xrotation
		JOINT LeftUpLeg
		{
			OFFSET 1.37590 -1.78394 0.89329
			CHANNELS 3 Zrotation Yrotation Xrotation
			JOINT LeftLeg
			{
				OFFSET 2.47928 -6.81178 0.00000
				CHANNELS 3 Zrotation Yrotation Xrotation
				JOINT LeftFoot
				{
					OFFSET 2.63345 -7.23535 0.00000
					CHANNELS 3 Zrotation Yrotation Xrotation
					JOINT LeftToeBase
					{
						OFFSET 0.23938 -0.65768 2.27012
						CHANNELS 3 Zrotation Yrotation Xrotation
						End Site
						{
							OFFSET 0.00000 -0.00000 1.18363
						}
					}
				}
			}
		}
	}
	JOINT RHipJoint
	{
		OFFSET 0 0 0
		CHANNELS 3 Zrotation Yrotation Xrotation
		JOINT RightUpLeg
		{
			OFFSET -1.33617 -1.78394 0.89329
			CHANNELS 3 Zrotation Yrotation Xrotation
			JOINT RightLeg
			{
				OFFSET -2.56922 -7.05888 0.00000
				CHANNELS 3 Zrotation Yrotation Xrotation
				JOINT RightFoot
				{
					OFFSET -2.56568 -7.04915 0.00000
					CHANNELS 3 Zrotation Yrotation Xrotation
					JOINT RightToeBase
					{
						OFFSET -0.27533 -0.75646 2.18105
						CHANNELS 3 Zrotation Yrotation Xrotation
						End Site
						{
							OFFSET -0.00000 -0.00000 1.15233
						}
					}
				}
			}
		}
	}
	JOINT LowerBack
	{
		OFFSET 0 0 0
		CHANNELS 3 Zrotation Yrotation Xrotation
		JOINT Spine
		{
			OFFSET 0.06190 2.15152 -0.00935
			CHANNELS 3 Zrotation Yrotation Xrotation
			JOINT Spine1
			{
				OFFSET 0.06334 2.15332 0.00872
				CHANNELS 3 Zrotation Yrotation Xrotation
				JOINT Neck
				{
					OFFSET 0 0 0
					CHANNELS 3 Zrotation Yrotation Xrotation
					JOINT Neck1
					{
						OFFSET -0.04202 1.66908 0.23524
						CHANNELS 3 Zrotation Yrotation Xrotation
						JOINT Head
						{
							OFFSET 0.07510 1.69357 -0.24440
							CHANNELS 3 Zrotation Yrotation Xrotation
							End Site
							{
								OFFSET 0.02556 1.71719 -0.11000
							}
						}
					}
				}
				JOINT LeftShoulder
				{
					OFFSET 0 0 0
					CHANNELS 3 Zrotation Yrotation Xrotation
					JOINT LeftArm
					{
						OFFSET 3.67168 1.26306 -0.41342
						CHANNELS 3 Zrotation Yrotation Xrotation
						JOINT LeftForeArm
						{
							OFFSET 4.68510 -0.00000 -0.00000
							CHANNELS 3 Zrotation Yrotation Xrotation
							JOINT LeftHand
							{
								OFFSET 3.39626 -0.00000 -0.00000
								CHANNELS 3 Zrotation Yrotation Xrotation
								JOINT LeftFingerBase
								{
									OFFSET 0 0 0
									CHANNELS 3 Zrotation Yrotation Xrotation
									JOINT LeftHandIndex1
									{
										OFFSET 0.48608 -0.00000 -0.00000
										CHANNELS 3 Zrotation Yrotation Xrotation
										End Site
										{
											OFFSET 0.39189 -0.00000 -0.00000
										}
									}
								}
								JOINT LThumb
								{
									OFFSET 0 0 0
									CHANNELS 3 Zrotation Yrotation Xrotation
									End Site
									{
										OFFSET 0.39787 -0.00000 0.39787
									}
								}
							}
						}
					}
				}
				JOINT RightShoulder
				{
					OFFSET 0 0 0
					CHANNELS 3 Zrotation Yrotation Xrotation
					JOINT RightArm
					{
						OFFSET -3.04136 1.42992 -0.76390
						CHANNELS 3 Zrotation Yrotation Xrotation
						JOINT RightForeArm
						{
							OFFSET -5.55576 -0.00000 -0.00000
							CHANNELS 3 Zrotation Yrotation Xrotation
							JOINT RightHand
							{
								OFFSET -3.32774 -0.00000 -0.00000
								CHANNELS 3 Zrotation Yrotation Xrotation
								JOINT RightFingerBase
								{
									OFFSET 0 0 0
									CHANNELS 3 Zrotation Yrotation Xrotation
									JOINT RightHandIndex1
									{
										OFFSET -0.50763 -0.00000 -0.00000
										CHANNELS 3 Zrotation Yrotation Xrotation
										End Site
										{
											OFFSET -0.40926 -0.00000 -0.00000
										}
									}
								}
								JOINT RThumb
								{
									OFFSET 0 0 0
									CHANNELS 3 Zrotation Yrotation Xrotation
									End Site
									{
										OFFSET -0.41551 -0.00000 0.41551
									}
								}
							}
						}
					}
				}
			}
		}
	}
}
MOTION
Frames: 8
Frame Time: 0.0512821
0.00 0.00 0.00 0 0 0 0 0 0 -21 0 0 0 0 0 0 0 0 0 0 0 0 0 0 21 0 0 0 0 0 0 0 0 0 0 0 0 0 0 0 0 0 0 0 0 0 0 -16 0 0 21 0 0 11 0 0 0 -8 0 0 0 0 0 0 0 0 0 0 0 0 0 0 0 0 0 0 0 0 8 0 0 0 0 0 0 0 0 0 0 0 0 0 0 0 0 0
0.00 0.00 0.00 -119.4870 -83.6040 132.0410 0.0000 0.0000 0.0000 -10.6658 -5.6398 -16.4753 1.8491 8.5444 24.3803 0.5649 0.7303 -14.4810 0.0119 -0.7046 -1.9363 0.0000 0.0000 0.0000 28.3364 8.8978 -11.0128 -1.0260 -6.4435 18.0769 -0.5086 -6.6857 -17.5551 -0.6564 -5.1820 14.4283 3.1024 -1.1062 -2.8014 0.6789 -1.5717 -2.6082 -1.0669 -0.8478 -1.1705 -11.6811 -9.2280 -15.9092 9.6399 -11.6308 13.9104 3.6329 -5.3290 8.1845 -0.0000 -0.0000 0.0000 -87.5845 1.2951 2.6295 12.5127 -20.5690 -2.2792 -0.0000 -0.0000 27.9401 12.8900 20.7126 4.6273 -7.1250 0.0000 -0.0000 -15.6241 50.5196 -2.1712 -0.0000 -0.0000 0.0000 86.2530 -1.8952 7.0824 -13.9398 22.6486 -2.8049 0.0000 0.0000 13.9616 -13.4473 -24.2444 5.6076 7.1250 -0.0000 -0.0000 16.7215 -54.0404 -3.7972
0.00 0.00 0.00 -107.9500 -82.9170 119.8970 0.0000 0.0000 0.0000 -7.8443 -6.5242 -26.1144 4.6978 13.0351 39.5001 0.5705 -0.1316 -14.2272 0.2159 -2.9916 -8.2554 0.0000 0.0000 0.0000 30.3872 8.2906 -10.1485 -1.1252 -6.7378 18.9408 -0.6059 -6.9157 -18.8259 -0.4571 -4.3370 12.0268 4.1852 -0.8970 -1.3962 0.9437 -1.2399 -1.9738 -1.3771 -0.6836 -1.3116 -11.7064 -9.3450 -15.9561 9.8342 -11.7021 12.7390 3.6944 -5.3505 7.8269 0.0000 -0.0000 0.0000 -87.4624 1.3868 3.2768 12.7669 -20.9447 -2.3693 -0.0000 -0.0000 27.4410 13.0095 20.5920 4.6457 -7.1250 0.0000 -0.0000 -15.4601 50.4208 -2.1093 0.0000 -0.0000 0.0000 86.3303 -1.4597 8.3011 -13.1565 21.5161 -2.5104 0.0000 0.0000 14.7711 -13.2630 -24.0031 5.4769 7.1250 -0.0000 -0.0000 16.7805 -53.7736 -3.7004
0.00 0.00 0.00 -102.3830 -83.6473 116.2630 0.0000 0.0000 0.0000 -3.5599 -13.3817 -36.6921 1.6090 7.9991 22.7114 -0.0480 4.7180 -4.5700 0.0483 -1.4189 -3.9022 0.0000 0.0000 0.0000 27.8766 4.4013 -3.9424 -3.2844 -11.1418 32.7597 0.2851 -11.3423 -10.9136 -0.0774 1.7944 -4.9378 3.0516 0.8775 0.1224 -1.0417 1.1802 -1.2063 -2.7936 0.5505 -1.2227 -12.3150 -10.1297 -15.9947 12.2794 -12.6243 8.0256 4.4798 -5.6886 6.6294 -0.0000 0.0000 0.0000 -87.0374 3.6117 0.7212 14.9542 -24.0823 -3.2072 -0.0000 -0.0000 23.0886 14.6845 22.4591 5.7169 -7.1250 0.0000 -0.0000 -14.6449 52.5257 -2.7605 -0.0000 0.0000 0.0000 87.0184 3.4388 22.3176 -15.5398 24.8927 -3.4500 0.0000 0.0000 12.2200 -13.3881 -24.9015 5.7230 7.1250 -0.0000 -0.0000 17.1259 -54.6621 -4.1563
0.00 0.00 0.00 -107.4900 -85.7426 120.2330 0.0000 0.0000 0.0000 -9.6121 -12.7887 -29.1705 1.5927 7.9606 22.5944 0.0519 2.7905 -6.2389 0.0003 0.1088 0.2988 0.0000 0.0000 0.0000 23.1195 4.3973 -14.0490 -6.9638 -15.3013 48.7373 0.8294 -16.1651 -2.7735 -0.0239 -0.9973 2.7415 0.8592 0.5730 0.6364 -1.5124 0.7472 -1.1274 -2.0462 0.3507 -1.4804 -12.2336 -9.9657 -15.6408 12.0396 -12.3999 7.7971 4.4367 -5.6101 6.4473 -0.0000 0.0000 0.0000 -86.6471 1.7268 6.0556 16.0002 -25.5209 -3.6460 -0.0000 -0.0000 21.6641 15.3107 23.3923 6.2033 -7.1250 0.0000 -0.0000 -14.4538 53.5538 -3.0907 -0.0000 0.0000 0.0000 86.7860 3.8301 24.9793 -17.2629 27.2030 -4.2068 0.0000 0.0000 11.4628 -13.3237 -24.7824 5.6693 7.1250 -0.0000 -0.0000 17.1262 -54.5354 -4.1028
0.00 0.00 0.00 -31.4088 -83.7990 40.1024 0.0000 0.0000 0.0000 -15.4465 -5.8566 -17.8212 4.2681 12.5089 37.5569 0.9051 -6.1375 -16.9668 0.2743 -3.3690 -9.3078 0.0000 0.0000 0.0000 12.2063 6.0478 -32.5070 -6.2220 -14.6401 45.8664 -0.1478 -9.1433 -15.3871 -0.1202 2.2350 -6.1556 1.4529 -1.6984 4.3338 -0.3347 -2.2010 0.0185 -1.0161 -1.1175 -2.4774 -13.6898 -8.6826 -11.8587 10.5063 -10.3127 2.8439 4.6230 -4.8613 4.0192 0.0000 0.0000 0.0000 -86.1080 -19.7707 38.1075 28.0175 -39.1324 -10.1347 -0.0000 -0.0000 11.0272 15.6193 25.0127 6.7415 -7.1250 0.0000 -0.0000 -14.9419 55.2003 -3.8044 0.0000 0.0000 0.0000 79.2190 16.8592 47.3382 -30.5251 41.3393 -11.7549 0.0000 0.0000 11.1386 -17.3102 -20.6539 6.2733 7.1250 -0.0000 -0.0000 11.3404 -51.1777 -1.7449
0.00 0.00 0.00 -28.9266 -76.2955 37.4471 0.0000 0.0000 0.0000 -7.2118 -6.2716 -31.2431 8.3940 16.4016 53.9699 0.5708 -7.0107 -13.5939 0.9622 -6.2457 -17.4991 0.0000 0.0000 0.0000 16.6505 4.4630 -25.3525 -4.9904 -13.3730 40.7813 -0.5829 -10.3868 -21.7069 -0.4037 4.0792 -11.2995 3.6922 -2.2433 6.0338 -0.0082 -2.7581 0.8535 -1.8469 -1.4152 -2.6743 -14.8558 -9.2852 -8.9876 12.1039 -11.2799 -0.7105 5.3646 -5.3900 2.7782 0.0000 0.0000 0.0000 -88.7768 -36.6211 48.8089 33.3282 -43.5808 -13.6478 -0.0000 -0.0000 6.7053 14.2759 26.5087 6.4793 -7.1250 0.0000 -0.0000 -17.1326 56.3813 -4.8817 0.0000 0.0000 0.0000 76.1961 30.9635 50.5267 -40.9885 48.6447 -19.1779 0.0000 0.0000 17.4820 -23.7618 -19.2746 8.2687 7.1250 -0.0000 -0.0000 4.5531 -50.8356 -0.6558
0.00 0.00 0.00 -27.3083 -67.3189 37.9101 0.0000 0.0000 0.0000 4.9992 -9.1383 -47.7297 3.9301 12.0668 35.9685 0.1467 -0.2868 -7.1359 0.9993 -6.3617 -17.8375 0.0000 0.0000 0.0000 25.6651 1.6198 -11.9029 -3.4665 -11.4144 33.6905 -0.1179 -19.4267 -28.3725 -0.4658 4.3777 -12.1419 2.6853 -1.6064 7.8585 -1.2354 -1.9787 1.5429 -2.5820 -1.0222 -2.9414 -17.4997 -10.4231 -5.6996 16.8286 -13.0532 -4.0345 7.2739 -6.3464 2.0666 0.0000 0.0000 0.0000 -113.9208 -61.5737 78.8047 39.3764 -47.6960 -17.9766 -0.0000 0.0000 -1.7658 16.8281 30.6386 8.7624 -7.1250 0.0000 -0.0000 -17.1829 60.9072 -6.7750 0.0000 0.0000 0.0000 67.3934 57.6898 39.2239 -63.8635 57.2545 -37.5738 0.0000 0.0000 31.8868 -37.2554 -21.5884 15.6338 7.1250 -0.0000 -0.0000 -9.4485 -56.1637 2.6035
